<mxfile host="app.diagrams.net" modified="2021-11-09T06:18:49.817Z" agent="5.0 (Windows NT 10.0; Win64; x64) AppleWebKit/537.36 (KHTML, like Gecko) Chrome/95.0.4638.69 Safari/537.36" etag="IGvUiV7ItlamE2Pj78LU" version="15.7.0" type="github">
  <diagram id="KVk115RYDCU2lppDDxTG" name="第 1 页">
    <mxGraphModel dx="831" dy="803" grid="1" gridSize="10" guides="1" tooltips="1" connect="1" arrows="1" fold="1" page="0" pageScale="1" pageWidth="827" pageHeight="1169" math="0" shadow="0">
      <root>
        <mxCell id="0" />
        <mxCell id="1" parent="0" />
        <mxCell id="V5dP-75gQMe0Mw4SYxsu-1" value="活动资源库" style="rounded=1;whiteSpace=wrap;html=1;fillColor=default;dashed=1;shadow=0;" vertex="1" parent="1">
          <mxGeometry x="-50" y="20" width="110" height="50" as="geometry" />
        </mxCell>
        <mxCell id="V5dP-75gQMe0Mw4SYxsu-6" value="" style="edgeStyle=orthogonalEdgeStyle;rounded=0;orthogonalLoop=1;jettySize=auto;html=1;" edge="1" parent="1" source="V5dP-75gQMe0Mw4SYxsu-4" target="V5dP-75gQMe0Mw4SYxsu-5">
          <mxGeometry relative="1" as="geometry" />
        </mxCell>
        <mxCell id="V5dP-75gQMe0Mw4SYxsu-4" value="活动列表" style="rounded=1;whiteSpace=wrap;html=1;shadow=0;fillColor=default;" vertex="1" parent="1">
          <mxGeometry x="-120" y="130" width="70" height="30" as="geometry" />
        </mxCell>
        <mxCell id="V5dP-75gQMe0Mw4SYxsu-9" value="" style="edgeStyle=orthogonalEdgeStyle;rounded=0;orthogonalLoop=1;jettySize=auto;html=1;" edge="1" parent="1" source="V5dP-75gQMe0Mw4SYxsu-5" target="V5dP-75gQMe0Mw4SYxsu-8">
          <mxGeometry relative="1" as="geometry" />
        </mxCell>
        <mxCell id="V5dP-75gQMe0Mw4SYxsu-5" value="分类" style="whiteSpace=wrap;html=1;rounded=1;shadow=0;" vertex="1" parent="1">
          <mxGeometry x="30" y="127.5" width="105" height="35" as="geometry" />
        </mxCell>
        <mxCell id="V5dP-75gQMe0Mw4SYxsu-7" value="选择" style="text;html=1;align=center;verticalAlign=middle;resizable=0;points=[];autosize=1;strokeColor=none;fillColor=none;" vertex="1" parent="1">
          <mxGeometry x="-30" y="130" width="40" height="20" as="geometry" />
        </mxCell>
        <mxCell id="V5dP-75gQMe0Mw4SYxsu-8" value="分销" style="rounded=1;whiteSpace=wrap;html=1;shadow=0;" vertex="1" parent="1">
          <mxGeometry x="290" y="115" width="120" height="60" as="geometry" />
        </mxCell>
        <mxCell id="V5dP-75gQMe0Mw4SYxsu-10" value="API" style="rounded=1;whiteSpace=wrap;html=1;shadow=0;" vertex="1" parent="1">
          <mxGeometry x="290" y="210" width="120" height="60" as="geometry" />
        </mxCell>
        <mxCell id="V5dP-75gQMe0Mw4SYxsu-11" value="商城" style="rounded=1;whiteSpace=wrap;html=1;shadow=0;" vertex="1" parent="1">
          <mxGeometry x="290" y="320" width="120" height="60" as="geometry" />
        </mxCell>
        <mxCell id="V5dP-75gQMe0Mw4SYxsu-12" style="edgeStyle=orthogonalEdgeStyle;rounded=0;orthogonalLoop=1;jettySize=auto;html=1;exitX=0.5;exitY=1;exitDx=0;exitDy=0;" edge="1" parent="1" source="V5dP-75gQMe0Mw4SYxsu-11" target="V5dP-75gQMe0Mw4SYxsu-11">
          <mxGeometry relative="1" as="geometry" />
        </mxCell>
        <mxCell id="V5dP-75gQMe0Mw4SYxsu-13" value="采购" style="rounded=1;whiteSpace=wrap;html=1;shadow=0;" vertex="1" parent="1">
          <mxGeometry x="290" y="420" width="120" height="60" as="geometry" />
        </mxCell>
      </root>
    </mxGraphModel>
  </diagram>
</mxfile>
